<?xml version="1.0" encoding="utf-8"?>
<!-- Generator: Adobe Illustrator 16.0.0, SVG Export Plug-In . SVG Version: 6.00 Build 0)  -->
<!DOCTYPE svg PUBLIC "-//W3C//DTD SVG 1.1//EN" "http://www.w3.org/Graphics/SVG/1.1/DTD/svg11.dtd">
<svg version="1.1" id="Ebene_1" xmlns="http://www.w3.org/2000/svg" xmlns:xlink="http://www.w3.org/1999/xlink" x="0px" y="0px"
	 width="1190.551px" height="841.89px" viewBox="0 0 1190.551 841.89" enable-background="new 0 0 1190.551 841.89"
	 xml:space="preserve">
<path fill="none" stroke="#090807" d="M33.135,10.001c0,0-25.322,0-25.322,25.324V726.16c0,0,0,25.328,25.322,25.328h690.835
	c0,0,25.322,0,25.322-25.328V35.324c0,0,0-25.324-25.322-25.324L33.135,10.001L33.135,10.001z"/>
<path fill="#E6007E" d="M328.921,687.615c0.558,1.186-0.559,2.645-1.187,3.762l-7.604,9.42c-4.743-3.141-7.185-8.092-6.696-13.674
	c0.557-7.951-0.278-17.018,7.253-21.695c2.027-1.047,3.84-2.303,5.792-3.486l0.487,0.482c-6.905,4.119-4.118,13.051-4.674,19.396
	c0.35,3-0.209,6.693,2.514,8.512C327.108,691.101,327.734,688.376,328.921,687.615L328.921,687.615z M325.293,656.009
	c0.488,3.35-1.6,6.146-4.465,7.744c-2.162,1.604-5.721,1.818-8.158,0.486c-0.209-0.486,0.347-0.561,0.628-0.906
	c1.117,0.766,2.792,1.186,4.114,0.414c1.605-0.906,1.954-2.576,1.466-4.188c-1.114-1.604-3.068-2.859-4.952-3.418
	c-1.115,1.396-2.576,1.75-4.256,1.814c-2.163,0.068-3.833-1.252-4.878-2.861c-0.56-1.045-0.844-2.58-0.278-3.627
	c0.903-2.021,4.604-2.021,3.626-4.668c-0.487-0.773-1.325-0.912-2.093-0.633c-0.28,0.275-0.56,0.703-0.912,0.768
	c-0.344-0.768,0.56-0.979,1.047-1.461c1.324-0.141,2.372,0.141,3.283,0.906c1.045,0.908,1.182,2.582,0.345,3.627
	c-1.325,1.117-2.577,2.438-1.812,4.326c0.767,1.744,2.716,2.162,4.395,1.674c2.023-1.324-0.836-3.139-0.632-4.949
	c-0.557-1.818,1.115-3.139,0.771-5.023c-1.463-1.189-3.278-1.953-5.305-2.162c-2.23,0.209-4.394,1.393-5.716,3.627
	c-4.053,10.393,10.248,15.207,9.063,25.252c-0.068,5.58-1.815,10.672-6.56,14.09c1.605,1.959,3.981,3.418,5.932,5.166
	c1.326,0.559,1.953-2.508,2.716-0.77c-2.23,3.418-5.715,5.928-8.3,9.066c-2.514-2.303-5.023-5.301-8.304-6.486
	c-3.416,0.906-6.209,4.254-8.723,6.838c-2.021-2.793-4.531-5.582-7.393-7.744c-1.047-0.07-2.232,0.482-3.279,1.047
	c-0.63,0.348-1.187,0.695-1.813,1.045l-0.348-0.488l10.882-9.627l1.952,1.68c1.891-1.467,1.817-4.119,1.535-6.561
	c-1.254-4.26-5.789-6.977-8.928-10.324c-1.326-0.346-1.953,1.467-2.301,2.164c-0.07,1.955,1.185,3.627,2.857,4.533
	c1.678,0.346,3.211,1.814,3.98,3.277c0.279,0.482,0.417,1.188,0.417,1.955c0,0.77-0.138,1.395-0.417,1.883
	c-0.907,1.188-2.373,2.164-3.98,1.537c-0.274-0.07-0.628-0.42-0.907-0.633l0.141-0.77c0.837,0.35,1.677,1.256,2.581,0.77
	c0.906-0.482,0.768-2.094,0.209-2.576c-2.651-2.096-7.257-2.934-7.046-7.26c0.209-2.438,1.326-4.531,3.209-6.277
	c-3.765-4.674-4.812-11.93-2.512-17.578c1.678-4.258,6.282-7.955,10.885-8.303c3.836-0.273,7.042,1.395,9.559,4.188
	c1.603,0,2.372-2.162,3.765-2.371c3.28-1.676,9.208-2.58,12.141,0.348c1.462,1.816,2.579-1.111,4.117-1.111
	c2.23-0.631,4.811-0.279,6.558,1.111c0,0.42-0.14,0.701-0.35,0.91c-0.907-0.771-2.095-1.188-3.278-0.701
	c-1.116,0.771-0.837,1.889-0.349,2.936C322.154,649.382,325.293,652.521,325.293,656.009L325.293,656.009z M301.507,686.568
	c8.649-10.607-6-17.58-7.952-26.787c-1.678,0.209-2.792,0.068-4.186-0.559c-1.888-1.117-3.629-2.791-3.074-5.23
	c0.56-2.094,2.863-3.002,4.396-4.189c0.211-0.836,0.211-1.748-0.628-2.299c-1.187-0.979-2.091,1.396-3,0.346
	c0-0.559,0.559-1.045,1.049-1.256c1.6-1.045,3.068,0,4.112,1.393c2.583,3.486-3.628,4.812-2.302,8.518
	c0.768,1.115,1.883,2.23,3.209,1.459c0.069-3.553,1.817-6.348,2.721-9.625c-1.114-2.719-3.979-4.395-6.977-4.465
	c-2.789-0.07-5.44,1.186-6.558,3.627c-3.91,7.953,3.906,13.602,8.511,19.318c2.864,1.113,4.884,4.119,5.791,6.838
	c0.766,3.908,0.488,8.158-1.812,11.229c-0.979,1.324-1.117,1.605-4.122,3.277c3.004-2.789,4.813-6.139,5.024-10.115
	c0.21-3.559-1.115-6.695-3.837-8.648c0.489,1.115,0.909,2.23,1.256,3.35c1.188,5.648-0.556,11.021-4.465,15
	c1.605,1.75,3.209,4.119,5.371,4.883C296.763,691.169,299.345,689.144,301.507,686.568L301.507,686.568z M330.665,665.64
	c0.977-3.979,5.3-6.422,7.4-9.84c1.317,3.004,4.949,5.236,4.949,8.857l0.142,28.254c0.766,1.047,1.602,1.254,2.718,1.047
	l1.886-2.373c0-4.463,0.209-9.207,0.209-13.736c0-4.676-0.14-9.279-0.771-13.533c-0.769-0.842-1.602-1.395-2.442-1.678
	c2.722-0.908,6.07-3.908,6.838-7.041c1.045,0.203,1.045,1.744,1.747,2.439c1.603,1.395,3.279,2.582,5.302,2.936
	c-0.56,1.115-2.373,1.529-2.931,2.93c-0.631,9.492-0.487,20.16-0.139,30.273c0.482,0.557,1.392,0.699,2.021,0.348l1.047-1.119
	c0.558,1.324-0.837,2.723-1.604,3.91l-3.348,4.811c-2.438-2.027-6.56-4.328-5.786-7.951c-1.679,2.646-5.512,4.465-6.627,7.605
	c-1.679-2.439-5.375-3-5.931-6.35l-0.069-29.441c-0.209-0.838-0.77-1.602-1.531-2.094c-1.325-0.35-1.887,1.467-2.511,2.232
	L330.665,665.64L330.665,665.64z M388.982,691.447c-0.771,3.908-5.309,6.486-7.399,9.834c-1.256-3.068-4.948-5.16-4.948-8.857
	l-0.211-28.252c-0.768-1.047-1.676-1.254-2.79-1.047l-1.884,2.373c-0.069,8.998-0.627,18.625,0.559,27.275
	c0.769,0.836,1.602,1.395,2.438,1.678c-2.858,0.975-5.926,3.906-6.832,7.041c-1.117-0.35-0.842-1.746-1.748-2.441
	c-1.6-1.391-3.278-2.578-5.301-2.93c0.557-1.117,2.372-1.535,2.928-2.932c0.634-9.49,0.491-20.16,0.141-30.273
	c-0.482-0.559-1.396-0.697-2.022-0.35l-1.044,1.117c-0.07-0.213-0.209-0.346-0.281-0.416c-0.069-0.07-0.14-0.07-0.209-0.141
	c0.281-0.486,0.56-0.904,0.843-1.393c0.482-0.771,0.977-1.469,1.255-1.955l3.349-4.812c2.438,2.094,6.561,4.256,5.786,7.953
	c1.75-2.65,5.512-4.604,6.628-7.604c1.677,2.438,5.371,3,5.931,6.35l0.209,29.439c0.209,0.838,0.767,1.602,1.53,2.094
	c0.771,0.068,1.396-0.416,1.748-0.977C388.145,691.656,388.214,690.82,388.982,691.447L388.982,691.447z M408.024,661.31
	c-0.482,1.189-2.023,1.189-2.86,2.307l-2.581,3.627c-1.257-1.955-3.139-4.676-5.715-5.023c-1.325,1.045-1.889,2.365-1.325,3.977
	c2.787,5.092,8.017,9.277,5.994,15.977c-1.114,2.23-1.952,4.596-4.187,6.484c2.022,1.887,4.465,4.117,6.906,5.793
	c1.602-0.211,1.742-1.959,3.069-2.723c0.767,0.209,0.559,0.979,0.209,1.324c-2.513,2.443-5.229,5.164-7.259,7.953
	c-2.718-3.559-6.487-5.861-10.392-7.469v-0.348c2.441-1.113,5.304-3.07,6.349-5.785c1.396-7.396-7.396-12.068-4.534-19.742
	c0.978-6.068,7.952-7.398,10.743-12.068C404.051,657.474,405.792,659.99,408.024,661.31L408.024,661.31z M432.858,711.328
	c-0.768,1.465-2.163,2.021-3.77,2.021c-1.318,0.279-2.646-0.414-3.691-1.186c-0.633-0.484-1.186-0.98-1.748-1.527
	c-1.254,0.625-2.507,1.184-3.763,1.672c-2.162,0.771-4.744,1.324-6.696,0.488c-1.605-0.77-3.006-2.023-3.627-3.627
	c-0.28-1.461,0.068-2.789,1.044-3.979c1.047-1.816,2.793-1.816,4.535-2.021c3.629-0.348,5.723,2.717,8.511,4.188
	c1.325-2.863,2.232-6.068,2.232-9.42l-0.558-33.273c-0.21-0.484-0.768-0.977-1.255-1.184c-1.675-0.559-2.582,1.184-3.141,2.369
	c-0.906,8.162-0.561,16.812-0.352,25.188c-0.209,2.094,2.443,2.791,3.209,3.977c-2.646,0.701-5.229,3.91-6.837,6.215
	c-1.952-1.889-4.112-3.908-6.898-4.189c2.858-1.457,3.482-4.738,3.139-7.605v-24.482c-1.116-0.771-2.371,0.906-3.628,0.348
	c6.418-4.465,0.698-14.09,7.395-18.557c2.793-2.719,6.837-3.277,10.465-2.514c1.884,0.49,3.629,1.746,4.533,3.42
	c0.414,0.629,0.629,1.395,0.629,2.303c0,0.906-0.211,1.676-0.629,2.305c-0.904,1.389-2.161,2.162-3.767,2.301
	c-1.327-0.211-2.718-0.977-3.209-2.301c-0.483-0.844-0.279-1.535,0-2.375c0.487-0.766,1.325-1.252,2.162-0.766
	c0.489,0.344,0.906,0.836,0.7,1.461c-0.208,0.975-1.678,0.416-1.465,1.676c0.837,1.115,2.162,1.531,3.488,1.047
	c1.46-1.047,1.674-2.719,1.46-4.324c-0.482-1.396-1.529-2.865-3-3.35c-1.601-0.557-3.833-0.416-5.159,0.629
	c-4.813,4.465-2.371,11.793-2.725,17.51l0.49-0.137c1.675-2.58,4.465-4.812,6.207-7.258c1.953,1.953,4.396,3.627,5.441,6.209
	c0.07,5.646,0.141,10.887,0.141,16.117c0,5.096-0.068,10.256-0.141,15.627c0,5.646-3.278,10.742-7.466,15.209
	c0.486,1.395,1.884,1.883,3.07,2.369c1.047,0.066,2.092,0.066,2.863-0.699c-0.14-0.771-0.843-1.252-0.843-1.885
	c0-0.211,0.142-0.486,0.351-0.699c0.489-0.348,1.187-0.836,1.812-0.348C433.485,709.025,433.068,710.419,432.858,711.328
	L432.858,711.328z M422.396,708.468c-1.954-2.438-4.529-4.256-7.81-3.979c-1.604,0.068-3.146,0.91-3.768,2.512
	c-0.635,1.676,0.695,3,1.601,4.324c2.23,1.049,5.307,0.701,7.469-0.344C420.792,710.349,422.186,709.796,422.396,708.468
	L422.396,708.468z M452.251,667.662c-2.094,4.115-6.418,6.279-10.11,8.158c-0.771,4.188-0.277,9.066-0.209,13.184
	c0.559,1.605,1.602,3.561,3.488,4.051c1.257,0.141,2.301-0.139,3.208-0.904c1.047-1.049,1.047-2.791,0.769-4.191
	c-1.325-2.789-5.162-4.949-3.629-8.369c0.49-1.117,1.325-1.814,2.372-2.373c1.326-0.209,2.372,0.979,2.863,2.023
	c0.205,0.902,0.628,2.162-0.278,2.934c-0.488-0.842-0.767-1.748-1.678-2.23c-1.321-0.281-1.743,0.77-1.951,1.674
	c0,2.373,2.44,3.766,2.998,6c2.581,6.139-3.903,8.928-6.486,13.393c-2.93-2.791-8.02-5.021-8.72-9.418l0.141-22.111
	c0-7.533,9.558-8.721,13.463-13.605l0.558,0.141c2.094,2.371,3.98,5.303,3.98,8.518C453.02,665.572,452.738,666.617,452.251,667.662
	L452.251,667.662z M445.763,670.869c0.771-1.883,0.561-3.91-0.204-5.789c-0.771-1.115-1.605-2.652-3.282-2.717v11.648
	C443.739,673.517,445.206,672.337,445.763,670.869L445.763,670.869z M482.944,691.447c-0.771,3.908-5.302,6.486-7.397,9.834
	c-1.251-3.068-4.95-5.16-4.95-8.857l-0.209-28.252c-0.77-1.047-1.674-1.254-2.791-1.047l-1.889,2.373
	c-0.068,8.998-0.628,18.625,0.56,27.275c0.77,0.836,1.601,1.395,2.442,1.678c-2.864,0.975-5.931,3.906-6.837,7.041
	c-1.116-0.35-0.84-1.746-1.749-2.441c-1.6-1.391-3.277-2.578-5.303-2.93c0.562-1.117,2.374-1.535,2.932-2.932
	c0.631-9.49,0.485-20.16,0.14-30.273c-0.482-0.559-1.392-0.697-2.021-0.35l-1.048,1.117c-0.068-0.213-0.208-0.346-0.277-0.416
	c-0.07-0.07-0.137-0.07-0.204-0.141c0.273-0.486,0.557-0.904,0.838-1.393c0.481-0.771,0.976-1.469,1.254-1.955l3.35-4.812
	c2.438,2.094,6.558,4.256,5.786,7.953c1.748-2.65,5.51-4.604,6.626-7.604c1.678,2.438,5.378,3,5.931,6.35l0.209,29.439
	c0.21,0.838,0.768,1.602,1.531,2.094c0.771,0.068,1.396-0.416,1.747-0.977C482.108,691.656,482.177,690.82,482.944,691.447
	L482.944,691.447z"/>
<path fill="#E6007E" d="M337.872,642.837c1.604,1.889,3.35,4.396,5.581,5.721c-0.488,1.189-2.021,1.189-2.858,2.305l-2.582,3.627
	c-1.257-1.953-3.141-4.674-5.722-5.025"/>
<path fill="#E6007E" d="M351.629,642.837c1.602,1.889,3.349,4.396,5.582,5.721c-0.49,1.189-2.023,1.189-2.865,2.305l-2.577,3.627
	c-1.254-1.953-3.139-4.674-5.72-5.025"/>
<g>
	<path fill="none" stroke="#191007" stroke-miterlimit="10" d="M41.136,312.669c0,0,19.016-1.075,22.106,10.416
		c0,0,0.492,2.978,14.108,3.179c0,0,4.357-0.989,3.43,12.823c0,0,7.641-6.454,13.72,8.637c0,0-7.952,0.932,1.017,13.719
		l-9.915,4.706l4.356,9.996c0,0-2.97,3.436-4.735,25.693c0,0,11.514-4.631,19.894,6.26c0,0,18.214,2.365,38.08-10.194
		c0,0,20.188-24.806,29.189-23.643c0,0,9.678-0.82,12.794,6.483l12.261,5.984l2.086,4.043c0,0,2.969,0.898,6.833-2.563l19.944,2.227
		l-0.791,2.812c0,0,8.508,6.412,9.676,7.311c1.167,0.896-0.011,24.662,1.631,26.503c1.642,1.846-0.74,12.059-3.604,15.062v27.105
		c0,0,14.031-1.785,19.702,1.926c0,0-7.478,12.76-6.612,15.684l2.873,6.541c0,0,4.848,4.299-1.433,19.93
		c0,0,8.307,0.125-1.09,18.992c0,0,33.423,29.027,54.37,37.314c0,0,5.655,1.32,6.993,19.072c0,0,3.911,11.939,10.885,4.781
		c0,0,6.869-4.586,8.134-3.748c0,0-7.479-6.818,26.922-18.633l9.196-21.963l16.619-3.004l3.067,24.766c0,0,3.239,0.396,5.393-7.762
		c0,0,0.962-1.004,4.601-0.775c0,0,12.358-27.551,11.903-33.938l16.094,1.064l3.09-4.418l41.828-22.359l4.079,7.432
		c0,0-1.803,15.504,4.928,16.855c0,0,20.146-5.371,23.051-5.615s2.241,5.117,4.292,5.061c0,0,10.652-2.346,21.305-7.279
		l10.626,0.363c0,0-1.798,4.555,6.029,4.959l13.952,0.92c0,0,2.229-1.145,4.055,5.705c0,0,52.172,8.906,68.904,17.941
		c0,0,8.1,0.049,13.467-2.066c0,0,14.998,2.123,17.393,2.857c0,0-14.108-32.896,0-40.564c0,0,11.97,3.695,2.978-6.342l46.268-30.77
		c0,0,7.797-10.598,0-22.869c0,0-6.6-3.766-1.94-8.168l-27.9-10.791c0,0,7.557-5.115-4.275-13.935l6.75-7.19
		c0,0,11.986,12.811,17.115,10.549c0,0,21.244-3.996,13.201-25.059c0,0-2.164-2.58,10.816-7.316c0,0,6.918-4.914-10.627-21.347
		c0,0-0.884-6.508,0.698-14.624c0,0,1.431-10.06-15.166-5.032l-51.812,10.675c0,0,8.27-22.047-6.18-32.819
		c0,0,24.069-33.393,23.87-43.665l12.086,2.025c0,0,6.744-12.438-5.174-21.83c0,0,9.662-6.878,2.777-11.44l-4.006-0.31
		c0,0-1.83,1.541-11.273,4.373c0,0-14.121-5.113-35.758-6.569c0,0-12.662,1.291-7.836,13.886l7.111,5.009
		c0,0-12.554,6.377-20.896,5.402c0,0-6.875-5.595-9.754-0.503c0,0-7.34,0.715-18.477-0.551c-11.14-1.267-4.73-3.981-23.855-5.928
		c0,0-2.578-19.778,16.584-56.235c0,0,5.244-28.67,19.164-36.457c0,0,23.697-16.397-4.773-32.369c0,0-7.553-1.641-7.047-10.758
		l-25.028-12.585c0,0-6.401,7.647-17.02,0c0,0-10.302,2.996-18.68,4.378c0,0,8.204,14.855-2.752,25.525
		c0,0-4.552,3.397-10.086,11.611l-29.169-3.409l0.182-24.767c0,0,0.953-4.888-7.173-9.182c0,0-2.865-1.857-2.942-8.483
		l-21.348,1.747c0,0-5.042,1.04-8.858,7.899c0,0-1.962,3.473-7.348,4.912c0,0-10.59,4.051-12.691-2.258
		c0,0,3.245-10.43-8.291-10.322c0,0-23.382,2.967-30.776-3.463c0,0-6.363,1.811-13.836-25.546c0,0-14.337-17.014-23.705-20.729
		c0,0-15.418-9.438-30.234-3.227l-8.765,4.261c0,0-3.8-1.043-2.822,10.667c0,0-1.758,17.192-4.295,24.214l-2.273,29.5l-5.598-0.708
		c0,0,0.37,11.015-19.528,9.793c0,0-23.754,12.968-33.797,23.189c0,0-0.182,9.121-12.17,10.494s-47.663,7.32-51.7,8.782
		s-9.808,7.702-11.738,7.265c-1.93-0.438-2.331-3.254-16.191-1.123c-13.86,2.131-23.918,4.218-32.707,4.23
		c-8.789,0.012-4.76,18.959-4.755,18.646c0.005-0.313-3.369,8.323,4.56,12.417l1.64,13.693c0,0,4.51,5.961-14.877,22.964
		c0,0-28.857-11.354-33.435,18.746l-3.955,18.927c0,0,0.183,3.557-7.58,6.013C40.754,302.381,40.269,309.688,41.136,312.669z"/>
	<path fill="none" stroke="#191007" stroke-miterlimit="10" d="M249.179,493.375l15.979-7.439l3.165,7.113
		c0,0,4.914-0.551,19.308-12.49c0,0,9.647-3.252,13.396-7.346c0,0,2.776-2.619,6.262,5.145c0,0,2.097,1.715,6.041,0.426
		c0,0-0.437-5.025,6.942-4.344c0,0-2.736,3.42,12.884-8.199c0,0-1.486,6.242,6.994,5.25c8.479-0.994,13.149-0.447,14.159-0.656
		c0,0,3.894-2.395,8.055-3.18c0,0,3.699-2.213,4.868-3.873s1.292,5.586,1.292,5.586s3.661-5.062,10.582,3.908
		c0,0,13.691-12.215,15.254-8.779c-0.093-0.369,1.403-2.789,5.491-3.074c0,0-0.021,6.152,4.89,4.176c0,0-8.851,6.223-9.72,18.561
		s0.461,21.271-5.277,32.246c-5.739,10.977-12.467,15.092-9.967,29.717"/>
	<path fill="none" stroke="#191007" stroke-miterlimit="10" d="M486.639,339.486l23.367-36.803l30.226-50.487
		c0,0,3.841-0.134,6.532,3.783"/>
	<path fill="none" stroke="#191007" stroke-miterlimit="10" d="M486.639,339.486"/>
	<path fill="none" stroke="#191007" stroke-miterlimit="10" d="M479.938,363.556c0.097-0.396,0.141-0.761,0.118-1.081"/>
	<path fill="none" stroke="#191007" stroke-miterlimit="10" d="M404.739,465.595c0,0,14.428-6.076,10.794-22.15
		c0,0-3.567-7.629,3.087-13.729c0,0,9.92-10.615,13.104-13.009c3.184-2.396,17.146-14.467,20.417-15.381
		c0,0,3.435-0.037,6.159-0.248c0,0,9.803-7.678,6.015-13.256c0,0,8.55-9.206,10.131-15.143c0,0,4.668-5.732,5.494-9.124"/>
	<path fill="none" stroke="#191007" stroke-miterlimit="10" d="M464.313,387.822l-0.079-0.476c0,0-4.02-7.553-20.852-3.127
		c0,0-5.275,10.209-6.577,10.146c-1.302-0.062-12.386-0.879-15.209-14.751c0,0,1.146-8.849-0.525-12.234
		c0,0,1.737-3.117,7.971-3.938l9.176-7.317c0,0,4.6,4.347,6.016,3.62l4.92-4.118l7.037,1.012c0,0,2.457,0.296,3.709-5.793
		c0,0,1.422-14.797,6.712-19.887c0,0,6.266-5.606,3.84-11.161c0,0,3.13-2.851,5.303,0.884c0,0,3.959,6.328,5.865,14.32l5.021,4.484
		l-6.582,23.704l1.974,3.75c0,0,2.795-1.938,12.054,2.046c0,0-0.171-0.659,2.84,4.135c0,0,1.638,2.824,4.558-0.464
		s7.037-4.125,8.411-3.991s11.669-0.746,17.12,2.065c0,0-4.982,5.039-2.234,11.339c0,0,9.357-5.141,15.026-5.044
		c0,0,5.894-0.737,11.495,2.614c0,0,2.539,1.837,8.258-2.218c0,0,27.117-3.965,31.229,5.053c0,0,2.812,14.117,5.337,17.129
		c0,0,2.479,1.115-5.871,13.128c0,0-9.082,22.055-14.904,23.596c0,0-4.457-3.16-12.762-5.244c0,0-16.744-5.838-19.312-6.52
		c0,0-16.592-3.743-31.108-4.22c0,0-15.83,0.666-19.486-9.219c0,0,10.084-5.539,16.09-15.898c0,0,6.354-9.719,16.555-8.288
		l-0.547-4.869"/>
	<path fill="none" stroke="#191007" stroke-miterlimit="10" d="M493.462,410.09c0,0-8.056,0.572-13.371,18.988
		c0,0-1.254,12.945,5.215,28.992c0,0,6.686,22,10.953,29.961c0,0,2.108,9.439,22.126,8.139c0,0,2.003,18.316,5.885,23.008"/>
	<path fill="none" stroke="#191007" stroke-miterlimit="10" d="M465.751,502.697c0,0,0.647-2.078,3.148-2.328l-8.286-18.24
		l-6.205,3.475c0,0-3.8-8.941-2.467-15.273l4.06-2.6c0,0-4.566-5.564-8.021-15.275c0,0-3.67-7.189-4.287-6.551
		c0,0-0.686-2.178-0.051-7.982c0,0,0.715-1.785,3.237-3.23c0,0,0.642-6.334,2.395-7.643c0,0,26.306-3.756,41.757-16.046"/>
	<path fill="none" stroke="#191007" stroke-miterlimit="10" d="M432.025,416.619c0,0,12.154,10.47,16.515,11.359"/>
	<path fill="none" stroke="#191007" stroke-miterlimit="10" d="M575.348,436.328c0,0,1.828,2.348,7.045,9.049
		c0,0,3.156,1.977,11.02,1.922c0,0,12.863,4.812,21.947,19.127c0,0,1.662,0.773-1.211,7.213c0,0-1.443,1.902,7.621,4.33
		c0,0,19.58,7.889,22.01,8.529c0,0,11.56,6.934,17.027,16.424"/>
	<path fill="none" stroke="#191007" stroke-miterlimit="10" d="M591.244,383.416l22.125-18.401c0,0,4.416-2.135-0.84-6.12
		c0,0,1.947-14.197,3.193-19.858c0,0,3.578-21.722,2.981-25.84c0,0,10.027,2.013,19.05,11.029"/>
	<path fill="none" stroke="#191007" stroke-miterlimit="10" d="M467.766,153.828l-5.861,39.512l9.667,1.131l-1.778,22.064
		l-8.787,0.405l1.18,44.66l-6.084,0.679l2.087,17.725c0,0,4.25,8.143-6.956,11.816l0.377,32.912c0,0,4.675-1.654,5.171,5.804
		c0,0,1.972,3.754,7.723,3.254"/>
	<path fill="none" stroke="#191007" stroke-miterlimit="10" d="M452.025,324.744l-10.753-0.318c0,0-9.523-6.14-30.636-6.911
		L392.5,336.34l-4.294-1.055l-3.885,7.068l-11.882,15.858c0,0,15.948,4.974,19.767-1.372c0,0,23.16,3.176,28.864,10.54"/>
	<path fill="none" stroke="#191007" stroke-miterlimit="10" d="M392.207,356.84c0,0-3.244,7.288-1.878,12.401
		c0,0,2.021,3.375,0.771,7.882c0,0-1.834,6.727-1.903,8.684c0,0,0.255,4.935-3.208,9.937c0,0-4.107,7.387-0.787,10.197
		c0,0,4.383,4.604,9.854,5.954l22.971,17.601"/>
	<path fill="none" stroke="#191007" stroke-miterlimit="10" d="M372.344,358.125l-7.284-1.126l-0.462-0.059l-25.533-3.271
		l-18.854-2.263l-40.625-6.024c0,0,1.248,3.003,0.136,13.516l-3.791,35.376c0,0,5.616,0.723,19.105,11.098
		c0,0,14.811,3.123,20.525,2.998c0,0,6.471-6.141,10.892-7.771c0,0,13.288-9.271,23.56-24.021c0,0-3.396-16.086,14.81-14.583"/>
	<line fill="none" stroke="#191007" stroke-miterlimit="10" x1="365.06" y1="356.998" x2="364.775" y2="362.431"/>
	<path fill="none" stroke="#191007" stroke-miterlimit="10" d="M350.011,376.574c0,0,7.67,8.467,14.398,14.547
		c0.169,0.152,3.547,3.078,4.866,4.039c0,0,11.836,6.709,15.047,9.096"/>
	<path fill="none" stroke="#191007" stroke-miterlimit="10" d="M365.06,391.686c9.568,9.283,2.105,43.685,2.105,43.685l0.065,28.41"
		/>
	<path fill="none" stroke="#191007" stroke-miterlimit="10" d="M303.75,407.016l0.457,26.431h-1.904c0,0,5.284,28.139-0.56,39.404"
		/>
	<path fill="none" stroke="#191007" stroke-miterlimit="10" d="M235.631,400.596c0,0,7.175-3.707,22.159-7.342l1.806,4.279
		c0,0,7.987-4.484,16.334-3.262"/>
	<path fill="none" stroke="#191007" stroke-miterlimit="10" d="M178.373,375.416l13.768-32.559c0,0,3.558-7.988,14.221-11.488
		c0,0-8.397-8.098-13.116-12.479c-4.719-4.38-18.098-14.514-19.534-19.143c0,0-0.109-4.52,2.358-7.062l9.237-10.1
		c0,0,2.715,0.196-0.533-6.823l1.354-2.036c0,0-4.925-2.668-3.201-5.638l7.398-1.985l9.293,0.085l4.188,9.953l8.268-7.701
		c0,0,5.11-4.108,9.031,2.223c0,0,3.682,3.547,4.802-1.061c0,0,8.586-1.201,12.541-3.092c0,0,11.012-6.975,16.858,5.442l2.424-0.925
		l8.765,6.259c0,0,5.009-7.815,12.458-1.804c0,0,4.545,12.523,5.247,17.768c0,0,1.685,7.057-13.119,7.9
		c0,0-6.326,0.797-6.231,11.565c0,0-3.451,17.928,14.738,32.666"/>
	<path fill="none" stroke="#191007" stroke-miterlimit="10" d="M284.198,293.25c0,0,3.994,0.053,6.848,1.148
		c0,0,3.508-2.268,6.807-5.711l18.048,1.431c0,0,4.009,2.367,4.566-8.566l7.122,7.232c0,0,1.873,2.533,8.468-2.003
		c0,0,8.939-6.379,23.642-1.146c0,0,2.618,0.172,6.01,1.154l0,0l0.949,2.853c0,0,4.27-1.108,10.361-2.056l23.005-8.792
		c0,0-0.728,5.267,6.885,6.493c0,0-7.2,1.841-5.736,16.667c0,0,0.501,4.039-4.136,3.165c0,0-1.915,1.21,0.156,4.234l9.548,12.206"/>
	<path fill="none" stroke="#191007" stroke-miterlimit="10" d="M406.908,285.287l9.927,0.506l0.711,0.013
		c0,0-1.91-14.003-6.496-19.377c0,0,14.606-3.578,24.43-5.164c0,0,12.469-2.173,20.622,1.013"/>
	<path fill="none" stroke="#191007" stroke-miterlimit="10" d="M420.278,125.954l4.664,13.272h-8.334c0,0,2.936-0.381,2.718,19.652
		s6.132,66.421,6.132,66.421s-42.222,2.308-50.119-0.874c0,0-83.982-17.294-107.645-30.544c-0.352-0.197-0.69-0.394-1.015-0.589
		c-0.284-0.17-2.411-3.839,2.259-10.36c0,0-1.672-7.317,5.166-12.002c0,0,10.376-5.568-16.644-32.793"/>
	<path fill="none" stroke="#191007" stroke-miterlimit="10" d="M239.158,182.853l28.536,11.028L239.158,182.853z"/>
	<path fill="none" stroke="#191007" stroke-miterlimit="10" d="M239.324,182.466c0,0-5.062,8.652,13.117,17.383
		c0,0,8.171,5.061,15.252,10.394c0,0,3.748,3.167,9.581,4.167c0,0,15.352-2.856,1.676,61.072"/>
	<line fill="none" stroke="#191007" stroke-miterlimit="10" x1="374.775" y1="223.994" x2="372.85" y2="288.303"/>
	<path fill="none" stroke="#191007" stroke-miterlimit="10" d="M170.474,178.671l-2.574,27.582l2.574,26.21
		c0,0,4.924,8.661,11.945,10.221c0,0-9.808,11.523,7.904,23.42"/>
	<g>
		<circle fill="none" stroke="#090807" cx="718.098" cy="40.184" r="2.834"/>
		<circle fill="none" stroke="#090807" cx="37.192" cy="722.667" r="2.834"/>
	</g>
</g>
<g>
	<g>
		<path fill="#E6007E" d="M454.884,372.882l0.983-5.58l-1.607,0.864l-0.815-2.1l3.18-1.681h2.557l-1.5,8.496H454.884
			L454.884,372.882z"/>
	</g>
	<g>
		<path fill="#E6007E" d="M401.037,400.758l0.396-2.197l3.863-2.711c0.145-0.104,0.293-0.229,0.444-0.379
			c0.15-0.147,0.228-0.297,0.228-0.448c0-0.169-0.047-0.31-0.144-0.421c-0.098-0.112-0.262-0.168-0.492-0.168
			c-0.28,0-0.506,0.093-0.678,0.275c-0.174,0.184-0.295,0.428-0.367,0.732l-2.557-0.373c0.105-0.463,0.273-0.884,0.506-1.261
			c0.23-0.375,0.512-0.694,0.84-0.959c0.326-0.264,0.703-0.469,1.127-0.612c0.425-0.144,0.89-0.216,1.394-0.216
			c0.399,0,0.795,0.048,1.188,0.144c0.394,0.096,0.744,0.246,1.058,0.449c0.312,0.205,0.563,0.469,0.756,0.791
			c0.19,0.323,0.287,0.709,0.287,1.155c0,0.392-0.062,0.732-0.187,1.023c-0.123,0.291-0.28,0.549-0.475,0.773
			c-0.191,0.223-0.408,0.422-0.646,0.598c-0.239,0.176-0.477,0.34-0.709,0.492l-1.45,0.971h3.022l-0.408,2.34L401.037,400.758
			L401.037,400.758z"/>
	</g>
	<g>
		<path fill="#E6007E" d="M426.774,340.922c0,0.521-0.113,0.968-0.342,1.344s-0.521,0.685-0.882,0.925
			c-0.36,0.239-0.761,0.416-1.2,0.527c-0.44,0.112-0.872,0.168-1.296,0.168c-0.448,0-0.874-0.053-1.278-0.157
			c-0.403-0.104-0.766-0.261-1.086-0.47c-0.319-0.209-0.592-0.477-0.814-0.802c-0.226-0.325-0.386-0.713-0.48-1.163l2.544-0.612
			c0.072,0.272,0.208,0.484,0.408,0.637c0.2,0.151,0.452,0.228,0.756,0.228c0.096,0,0.196-0.012,0.3-0.036
			c0.104-0.022,0.198-0.061,0.282-0.113c0.084-0.052,0.154-0.114,0.21-0.189s0.084-0.168,0.084-0.279
			c0-0.276-0.107-0.459-0.324-0.547c-0.216-0.087-0.516-0.131-0.898-0.131h-0.792l0.323-1.896h0.911
			c0.152,0,0.306-0.012,0.456-0.035c0.152-0.024,0.284-0.062,0.396-0.114c0.111-0.052,0.204-0.12,0.275-0.204
			s0.107-0.19,0.107-0.318c0-0.199-0.065-0.338-0.198-0.414c-0.132-0.075-0.29-0.113-0.474-0.113c-0.232,0-0.444,0.06-0.637,0.18
			c-0.191,0.12-0.323,0.28-0.396,0.479l-2.436-0.647c0.15-0.393,0.354-0.73,0.61-1.014c0.257-0.284,0.544-0.519,0.864-0.702
			c0.32-0.185,0.666-0.32,1.038-0.408s0.754-0.132,1.146-0.132c0.376,0,0.759,0.036,1.146,0.107c0.388,0.072,0.738,0.2,1.05,0.385
			c0.312,0.184,0.566,0.43,0.763,0.737c0.195,0.309,0.294,0.694,0.294,1.158c0,0.264-0.053,0.502-0.155,0.714
			c-0.104,0.212-0.234,0.396-0.391,0.552c-0.155,0.156-0.328,0.282-0.517,0.379c-0.188,0.096-0.37,0.163-0.546,0.203l-0.013,0.049
			c0.377,0.136,0.669,0.354,0.877,0.653C426.672,340.148,426.774,340.506,426.774,340.922z"/>
	</g>
	<g>
		<path fill="#E6007E" d="M432.01,301.004l-0.265,1.512h-2.521l0.265-1.512h-4.021l0.408-2.268l3.863-4.716h3.456l-0.853,4.812
			h1.212l-0.384,2.172H432.01z M430.259,296.577h-0.049l-1.836,2.256h1.488L430.259,296.577z"/>
	</g>
	<g>
		<path fill="#E6007E" d="M336.539,323.838c-0.04,0.008-0.08,0.012-0.119,0.012c-0.04,0-0.075,0-0.107,0
			c-0.393,0-0.74-0.069-1.044-0.21c-0.305-0.14-0.562-0.323-0.774-0.552c-0.212-0.228-0.372-0.488-0.479-0.78
			c-0.108-0.292-0.162-0.59-0.162-0.894c0-0.472,0.088-0.922,0.264-1.35c0.176-0.429,0.438-0.805,0.78-1.129
			c0.344-0.323,0.762-0.582,1.254-0.773c0.492-0.192,1.058-0.288,1.698-0.288c0.479,0,0.932,0.054,1.354,0.162
			c0.425,0.107,0.796,0.28,1.116,0.516c0.32,0.236,0.574,0.54,0.762,0.912c0.188,0.372,0.282,0.822,0.282,1.351
			c0,0.487-0.104,0.972-0.317,1.451c-0.213,0.48-0.569,1-1.073,1.561l-2.496,2.76h-3.612l2.484-2.544L336.539,323.838z
			 M338.615,320.922c0-0.256-0.088-0.458-0.264-0.605c-0.177-0.148-0.376-0.223-0.601-0.223c-0.337,0-0.601,0.104-0.792,0.312
			s-0.288,0.479-0.288,0.815c0,0.265,0.086,0.469,0.259,0.612c0.172,0.145,0.36,0.216,0.569,0.216c0.353,0,0.625-0.107,0.821-0.324
			C338.517,321.51,338.615,321.243,338.615,320.922z"/>
	</g>
	<g>
		<path fill="#E6007E" d="M386.468,437.281c0.038-0.008,0.077-0.012,0.118-0.012c0.039,0,0.076,0,0.107,0
			c0.393,0,0.74,0.068,1.045,0.209c0.303,0.141,0.561,0.324,0.773,0.553c0.213,0.227,0.373,0.488,0.479,0.779
			c0.107,0.293,0.162,0.59,0.162,0.895c0,0.471-0.088,0.922-0.264,1.35c-0.179,0.43-0.438,0.807-0.781,1.127
			c-0.344,0.324-0.764,0.582-1.26,0.775c-0.496,0.191-1.062,0.287-1.691,0.287c-0.479,0-0.932-0.053-1.354-0.162
			c-0.427-0.107-0.798-0.279-1.117-0.516c-0.32-0.236-0.574-0.539-0.763-0.912c-0.188-0.371-0.28-0.822-0.28-1.35
			c0-0.488,0.104-0.973,0.315-1.451c0.213-0.48,0.57-1,1.074-1.561l2.496-2.76h3.613l-2.484,2.543L386.468,437.281z
			 M384.391,440.197c0,0.256,0.088,0.457,0.264,0.605s0.375,0.223,0.6,0.223c0.336,0,0.601-0.105,0.791-0.312
			c0.193-0.209,0.289-0.479,0.289-0.816c0-0.264-0.086-0.469-0.258-0.609c-0.172-0.146-0.363-0.217-0.57-0.217
			c-0.352,0-0.627,0.105-0.821,0.322C384.49,439.611,384.391,439.876,384.391,440.197z"/>
	</g>
	<g>
		<path fill="#E6007E" d="M330.787,441.029h-3.312l4.393-6.182h-3.588l0.407-2.314h6.708l-0.349,1.979L330.787,441.029z"/>
	</g>
	<g>
		<path fill="#E6007E" d="M370.834,374.34c0.146,0.064,0.292,0.15,0.444,0.258c0.152,0.108,0.29,0.24,0.414,0.396
			s0.226,0.332,0.306,0.528c0.08,0.195,0.12,0.405,0.12,0.63c0,0.472-0.088,0.884-0.264,1.235c-0.176,0.353-0.424,0.646-0.744,0.882
			c-0.32,0.236-0.706,0.412-1.158,0.528s-0.958,0.174-1.518,0.174c-0.36,0-0.732-0.038-1.116-0.113
			c-0.384-0.076-0.732-0.208-1.044-0.396c-0.312-0.188-0.57-0.434-0.774-0.738c-0.203-0.304-0.306-0.684-0.306-1.14
			c0-0.336,0.058-0.636,0.174-0.9c0.116-0.264,0.268-0.493,0.45-0.689c0.184-0.196,0.39-0.358,0.618-0.486
			c0.228-0.128,0.454-0.22,0.678-0.275v-0.049c-0.336-0.144-0.594-0.354-0.772-0.63c-0.182-0.275-0.271-0.59-0.271-0.941
			c0-0.433,0.104-0.811,0.312-1.135c0.208-0.323,0.479-0.592,0.812-0.804s0.707-0.37,1.124-0.474
			c0.417-0.104,0.838-0.156,1.263-0.156c0.394,0,0.771,0.042,1.13,0.126c0.36,0.084,0.681,0.214,0.956,0.39
			c0.276,0.177,0.498,0.4,0.667,0.673c0.168,0.271,0.252,0.6,0.252,0.983c0,0.312-0.055,0.588-0.166,0.828
			c-0.109,0.24-0.251,0.444-0.42,0.612s-0.354,0.306-0.56,0.414c-0.205,0.107-0.406,0.186-0.606,0.233V374.34L370.834,374.34z
			 M367.834,376.176c0,0.232,0.07,0.408,0.21,0.528c0.142,0.12,0.3,0.18,0.476,0.18c0.318,0,0.556-0.08,0.708-0.24
			c0.15-0.159,0.228-0.355,0.228-0.588c0-0.184-0.064-0.35-0.196-0.498c-0.134-0.146-0.304-0.222-0.512-0.222
			c-0.271,0-0.491,0.08-0.66,0.24S367.834,375.936,367.834,376.176z M368.507,372.816c0,0.159,0.057,0.308,0.168,0.443
			c0.111,0.137,0.275,0.204,0.491,0.204c0.24,0,0.436-0.072,0.582-0.216c0.148-0.145,0.224-0.324,0.224-0.54
			c0-0.208-0.06-0.372-0.175-0.492s-0.273-0.18-0.475-0.18c-0.248,0-0.446,0.072-0.594,0.216
			C368.581,372.396,368.507,372.584,368.507,372.816z"/>
	</g>
	<g>
		<path fill="#E6007E" d="M311.871,257.286l0.984-5.58l-1.608,0.864l-0.814-2.1l3.18-1.68h2.556l-1.5,8.496H311.871z"/>
		<path fill="#E6007E" d="M322.264,248.574c0.632,0,1.164,0.096,1.596,0.288c0.432,0.192,0.782,0.442,1.05,0.75
			c0.269,0.308,0.46,0.658,0.576,1.05s0.174,0.784,0.174,1.176c0,0.4-0.034,0.816-0.102,1.248c-0.068,0.432-0.174,0.858-0.318,1.278
			c-0.144,0.42-0.332,0.82-0.562,1.2c-0.232,0.38-0.512,0.714-0.835,1.002s-0.699,0.516-1.129,0.684
			c-0.428,0.168-0.913,0.252-1.458,0.252c-0.64,0-1.18-0.096-1.618-0.288c-0.44-0.192-0.797-0.442-1.068-0.75
			c-0.272-0.308-0.466-0.656-0.582-1.044c-0.116-0.388-0.174-0.782-0.174-1.182c0-0.4,0.034-0.816,0.102-1.248
			c0.068-0.432,0.177-0.858,0.324-1.278s0.338-0.82,0.57-1.2c0.23-0.38,0.512-0.714,0.84-1.002c0.328-0.288,0.708-0.516,1.14-0.684
			S321.711,248.574,322.264,248.574z M322.035,250.878c-0.231,0-0.438,0.099-0.624,0.295c-0.184,0.197-0.34,0.445-0.468,0.746
			c-0.128,0.301-0.224,0.628-0.288,0.981c-0.063,0.353-0.096,0.686-0.096,0.999c0,0.353,0.064,0.652,0.196,0.897
			c0.134,0.245,0.339,0.367,0.618,0.367c0.226,0,0.428-0.094,0.606-0.283s0.334-0.429,0.462-0.722s0.224-0.618,0.288-0.975
			c0.062-0.357,0.096-0.704,0.096-1.041c0-0.353-0.06-0.652-0.18-0.896S322.323,250.878,322.035,250.878z"/>
	</g>
	<g>
		<path fill="#E6007E" d="M402.716,247.537l0.983-5.58l-1.607,0.864l-0.815-2.1l3.18-1.68h2.557l-1.5,8.496H402.716z"/>
		<path fill="#E6007E" d="M411.055,247.537l0.983-5.58l-1.607,0.864l-0.815-2.1l3.181-1.68h2.556l-1.5,8.496H411.055z"/>
	</g>
	<g>
		<path fill="#E6007E" d="M487.243,258.576l0.984-5.58l-1.608,0.864l-0.814-2.1l3.18-1.68h2.556l-1.5,8.496H487.243z"/>
		<path fill="#E6007E" d="M492.932,258.576l0.396-2.196l3.864-2.712c0.145-0.104,0.292-0.229,0.444-0.378
			c0.15-0.148,0.228-0.298,0.228-0.45c0-0.168-0.048-0.308-0.144-0.42c-0.097-0.112-0.261-0.168-0.492-0.168
			c-0.28,0-0.506,0.092-0.678,0.276c-0.173,0.184-0.294,0.428-0.366,0.732l-2.557-0.372c0.104-0.464,0.271-0.884,0.505-1.26
			c0.23-0.375,0.512-0.696,0.84-0.96c0.327-0.264,0.703-0.468,1.128-0.612c0.424-0.144,0.888-0.216,1.392-0.216
			c0.4,0,0.796,0.048,1.188,0.144c0.392,0.096,0.744,0.246,1.056,0.449c0.312,0.204,0.564,0.467,0.756,0.791
			c0.192,0.323,0.288,0.708,0.288,1.156c0,0.392-0.062,0.733-0.186,1.024s-0.282,0.549-0.476,0.772
			c-0.19,0.223-0.407,0.423-0.646,0.599c-0.24,0.176-0.478,0.339-0.708,0.491l-1.452,0.97h3.022l-0.406,2.34H492.932
			L492.932,258.576z"/>
	</g>
	<g>
		<path fill="#E6007E" d="M549.488,325.056l0.984-5.58l-1.609,0.864l-0.813-2.1l3.18-1.681h2.555l-1.5,8.496H549.488
			L549.488,325.056z"/>
		<path fill="#E6007E" d="M562.615,322.332c0,0.52-0.112,0.968-0.342,1.344c-0.227,0.376-0.521,0.685-0.881,0.924
			c-0.361,0.24-0.76,0.416-1.201,0.528c-0.438,0.112-0.871,0.168-1.295,0.168c-0.449,0-0.875-0.053-1.279-0.157
			c-0.401-0.104-0.766-0.261-1.086-0.47c-0.317-0.209-0.592-0.477-0.813-0.802c-0.226-0.325-0.385-0.713-0.48-1.163l2.543-0.612
			c0.072,0.272,0.209,0.484,0.408,0.636c0.201,0.152,0.453,0.229,0.756,0.229c0.097,0,0.197-0.012,0.301-0.036
			c0.104-0.023,0.197-0.061,0.281-0.113c0.084-0.052,0.154-0.114,0.211-0.189c0.056-0.075,0.084-0.168,0.084-0.279
			c0-0.277-0.106-0.459-0.323-0.547c-0.218-0.088-0.517-0.131-0.9-0.131h-0.791l0.324-1.896h0.909c0.152,0,0.306-0.012,0.457-0.036
			c0.152-0.023,0.283-0.062,0.396-0.113c0.111-0.053,0.203-0.12,0.275-0.204c0.071-0.084,0.106-0.19,0.106-0.318
			c0-0.2-0.063-0.338-0.197-0.414c-0.133-0.076-0.291-0.114-0.475-0.114c-0.232,0-0.443,0.061-0.635,0.181
			c-0.193,0.12-0.324,0.279-0.396,0.479l-2.436-0.647c0.149-0.393,0.354-0.73,0.61-1.015c0.257-0.283,0.544-0.518,0.863-0.701
			c0.32-0.185,0.666-0.32,1.039-0.408c0.371-0.088,0.754-0.132,1.146-0.132c0.375,0,0.758,0.035,1.145,0.107
			c0.389,0.072,0.738,0.2,1.051,0.384c0.312,0.185,0.566,0.431,0.763,0.738c0.195,0.309,0.295,0.694,0.295,1.158
			c0,0.264-0.054,0.502-0.156,0.714c-0.104,0.212-0.234,0.396-0.391,0.552c-0.156,0.156-0.328,0.282-0.517,0.378
			c-0.188,0.097-0.371,0.164-0.547,0.204l-0.012,0.048c0.377,0.137,0.668,0.354,0.877,0.654S562.615,321.917,562.615,322.332z"/>
	</g>
	<g>
		<path fill="#E6007E" d="M620.802,419.162l0.983-5.58l-1.606,0.863l-0.816-2.101l3.181-1.68h2.557l-1.5,8.496L620.802,419.162
			L620.802,419.162z"/>
		<path fill="#E6007E" d="M633.941,416.102c0,0.584-0.113,1.084-0.342,1.5c-0.229,0.416-0.519,0.759-0.871,1.025
			c-0.352,0.27-0.744,0.465-1.182,0.59c-0.437,0.123-0.857,0.187-1.267,0.187c-0.463,0-0.896-0.056-1.295-0.162
			c-0.399-0.107-0.762-0.269-1.08-0.482c-0.319-0.215-0.594-0.479-0.815-0.795c-0.226-0.313-0.39-0.674-0.492-1.08l2.58-0.696
			c0.063,0.264,0.194,0.477,0.396,0.637c0.199,0.16,0.437,0.24,0.707,0.24c0.097,0,0.193-0.013,0.295-0.037
			c0.101-0.023,0.191-0.064,0.275-0.121c0.084-0.058,0.154-0.131,0.209-0.224c0.057-0.094,0.084-0.209,0.084-0.346
			c0-0.313-0.119-0.521-0.359-0.623c-0.239-0.102-0.547-0.149-0.924-0.149c-0.336,0-0.721,0.024-1.152,0.077
			c-0.432,0.052-0.836,0.113-1.211,0.187l1.199-5.16h5.726l-0.408,2.316h-3.373l-0.168,0.684c0.098-0.016,0.207-0.029,0.33-0.043
			c0.125-0.012,0.229-0.018,0.317-0.018c0.345,0,0.687,0.041,1.027,0.121c0.34,0.079,0.641,0.215,0.904,0.407
			c0.266,0.191,0.479,0.447,0.643,0.769C633.858,415.225,633.941,415.621,633.941,416.102z"/>
	</g>
	<g>
		<path fill="#E6007E" d="M542.487,406.404l0.984-5.58l-1.608,0.865l-0.814-2.101l3.181-1.682h2.555l-1.5,8.496L542.487,406.404
			L542.487,406.404z"/>
		<path fill="#E6007E" d="M554.656,404.893l-0.264,1.513h-2.521l0.267-1.513h-4.021l0.408-2.268l3.865-4.717h3.455l-0.853,4.812
			h1.211l-0.383,2.172L554.656,404.893L554.656,404.893z M552.904,400.465h-0.049l-1.836,2.256h1.488L552.904,400.465z"/>
	</g>
	<g>
		<path fill="#E6007E" d="M465.747,477.197l0.984-5.58l-1.607,0.863l-0.815-2.1l3.18-1.68h2.557l-1.5,8.496H465.747L465.747,477.197
			z"/>
		<path fill="#E6007E" d="M475.191,477.197h-3.312l4.393-6.18h-3.588l0.407-2.316h6.708l-0.349,1.98L475.191,477.197z"/>
	</g>
	<g>
		<path fill="#E6007E" d="M549.488,481.923l0.984-5.58l-1.609,0.863l-0.813-2.1l3.18-1.68h2.555l-1.5,8.496H549.488L549.488,481.923
			z"/>
		<path fill="#E6007E" d="M560.169,476.175c0.039-0.008,0.08-0.012,0.118-0.012c0.041,0,0.076,0,0.109,0
			c0.391,0,0.74,0.07,1.043,0.209c0.305,0.141,0.562,0.324,0.775,0.553c0.211,0.23,0.371,0.488,0.479,0.779
			c0.109,0.293,0.162,0.59,0.162,0.895c0,0.475-0.088,0.924-0.264,1.352s-0.437,0.805-0.779,1.129s-0.764,0.582-1.26,0.771
			c-0.496,0.191-1.062,0.287-1.693,0.287c-0.479,0-0.932-0.053-1.354-0.16c-0.424-0.107-0.797-0.279-1.115-0.518
			c-0.32-0.234-0.574-0.539-0.762-0.912c-0.189-0.371-0.283-0.82-0.283-1.35c0-0.488,0.104-0.971,0.318-1.451
			c0.211-0.48,0.569-1,1.073-1.561l2.496-2.76h3.611l-2.484,2.543L560.169,476.175z M558.093,479.091
			c0,0.256,0.088,0.457,0.264,0.605s0.377,0.223,0.6,0.223c0.338,0,0.603-0.104,0.793-0.311c0.191-0.207,0.287-0.48,0.287-0.816
			c0-0.264-0.086-0.467-0.258-0.611s-0.361-0.217-0.57-0.217c-0.352,0-0.625,0.109-0.819,0.324
			C558.189,478.503,558.093,478.771,558.093,479.091z"/>
	</g>
	<g>
		<path fill="#E6007E" d="M412.427,490.763l0.983-5.58l-1.608,0.863l-0.814-2.1l3.18-1.68h2.556l-1.5,8.496H412.427L412.427,490.763
			z"/>
		<path fill="#E6007E" d="M424.102,486.347c0.145,0.064,0.291,0.15,0.443,0.26c0.151,0.107,0.291,0.238,0.414,0.395
			c0.125,0.156,0.227,0.332,0.307,0.527s0.119,0.406,0.119,0.631c0,0.471-0.088,0.883-0.265,1.234
			c-0.176,0.354-0.424,0.646-0.743,0.883c-0.32,0.236-0.705,0.412-1.158,0.527c-0.451,0.117-0.957,0.174-1.519,0.174
			c-0.358,0-0.731-0.037-1.114-0.113c-0.386-0.076-0.732-0.207-1.045-0.396c-0.312-0.188-0.57-0.434-0.773-0.736
			c-0.203-0.305-0.307-0.686-0.307-1.141c0-0.336,0.059-0.637,0.174-0.898c0.117-0.266,0.268-0.494,0.451-0.689
			c0.184-0.197,0.389-0.359,0.616-0.486c0.229-0.129,0.455-0.221,0.679-0.275v-0.049c-0.336-0.145-0.595-0.354-0.773-0.631
			c-0.18-0.275-0.27-0.59-0.27-0.941c0-0.432,0.104-0.811,0.312-1.133c0.207-0.324,0.479-0.594,0.812-0.805
			c0.334-0.213,0.707-0.371,1.125-0.475c0.416-0.105,0.838-0.156,1.262-0.156c0.393,0,0.77,0.043,1.131,0.127
			c0.359,0.084,0.68,0.213,0.955,0.391c0.277,0.176,0.498,0.398,0.668,0.672c0.168,0.271,0.252,0.6,0.252,0.982
			c0,0.312-0.055,0.588-0.166,0.828s-0.252,0.445-0.42,0.613c-0.17,0.168-0.355,0.305-0.561,0.414
			c-0.203,0.105-0.406,0.186-0.605,0.23V486.347z M421.102,488.183c0,0.232,0.07,0.408,0.209,0.527
			c0.141,0.121,0.299,0.18,0.475,0.18c0.32,0,0.558-0.078,0.709-0.236c0.15-0.16,0.228-0.357,0.228-0.592
			c0-0.184-0.064-0.35-0.197-0.496s-0.303-0.223-0.51-0.223c-0.271,0-0.492,0.08-0.66,0.24S421.102,487.943,421.102,488.183z
			 M421.773,484.824c0,0.16,0.057,0.307,0.168,0.443s0.275,0.203,0.492,0.203c0.24,0,0.434-0.07,0.582-0.215
			c0.147-0.145,0.223-0.324,0.223-0.541c0-0.207-0.059-0.371-0.174-0.492c-0.117-0.119-0.275-0.18-0.475-0.18
			c-0.248,0-0.447,0.072-0.595,0.217C421.848,484.404,421.773,484.591,421.773,484.824z"/>
	</g>
	<g>
		<path fill="#E6007E" d="M311.104,522.763l0.983-5.58l-1.607,0.863l-0.815-2.1l3.181-1.68h2.556l-1.5,8.496H311.104
			L311.104,522.763z"/>
		<path fill="#E6007E" d="M319.947,520.015c-0.04,0.01-0.08,0.014-0.119,0.014c-0.04,0-0.076,0-0.107,0
			c-0.393,0-0.74-0.07-1.044-0.209c-0.305-0.143-0.562-0.324-0.774-0.555c-0.212-0.229-0.372-0.486-0.479-0.777
			c-0.107-0.293-0.161-0.59-0.161-0.896c0-0.473,0.088-0.922,0.264-1.35s0.437-0.805,0.78-1.129
			c0.343-0.324,0.762-0.582,1.254-0.773s1.058-0.289,1.697-0.289c0.479,0,0.933,0.057,1.355,0.162
			c0.425,0.109,0.796,0.281,1.116,0.516c0.319,0.236,0.574,0.541,0.762,0.912c0.188,0.373,0.282,0.822,0.282,1.354
			c0,0.484-0.105,0.971-0.317,1.451c-0.213,0.479-0.569,1-1.074,1.561l-2.495,2.76h-3.612l2.484-2.545L319.947,520.015z
			 M322.023,517.099c0-0.256-0.088-0.459-0.264-0.604c-0.177-0.148-0.377-0.225-0.601-0.225c-0.337,0-0.601,0.105-0.792,0.312
			s-0.288,0.479-0.288,0.816c0,0.264,0.086,0.467,0.258,0.611c0.173,0.145,0.361,0.215,0.57,0.215c0.353,0,0.625-0.107,0.821-0.322
			C321.927,517.687,322.023,517.419,322.023,517.099z"/>
	</g>
	<g>
		<path fill="#E6007E" d="M253.499,441.24l0.396-2.195l3.863-2.713c0.145-0.104,0.292-0.23,0.444-0.379
			c0.151-0.146,0.229-0.297,0.229-0.449c0-0.168-0.049-0.309-0.145-0.42c-0.097-0.111-0.261-0.168-0.492-0.168
			c-0.279,0-0.506,0.092-0.678,0.275c-0.173,0.186-0.294,0.428-0.366,0.732l-2.557-0.371c0.104-0.465,0.271-0.885,0.505-1.262
			c0.231-0.375,0.512-0.695,0.84-0.959c0.327-0.264,0.703-0.469,1.128-0.611c0.424-0.145,0.889-0.217,1.393-0.217
			c0.399,0,0.796,0.049,1.188,0.145c0.393,0.096,0.744,0.244,1.056,0.449c0.312,0.203,0.564,0.467,0.757,0.789
			c0.191,0.324,0.288,0.709,0.288,1.156c0,0.393-0.062,0.73-0.187,1.025c-0.124,0.289-0.282,0.549-0.475,0.77
			c-0.191,0.223-0.408,0.424-0.647,0.6c-0.24,0.178-0.477,0.34-0.708,0.49l-1.452,0.971h3.023l-0.407,2.342H253.499L253.499,441.24z
			"/>
		<path fill="#E6007E" d="M266.543,432.527c0.632,0,1.164,0.096,1.597,0.289c0.432,0.191,0.781,0.441,1.05,0.75
			c0.268,0.309,0.46,0.658,0.576,1.049c0.115,0.393,0.174,0.785,0.174,1.176c0,0.4-0.034,0.816-0.103,1.248
			c-0.067,0.434-0.174,0.859-0.317,1.279c-0.145,0.42-0.332,0.82-0.563,1.199c-0.231,0.381-0.511,0.715-0.835,1.002
			c-0.323,0.289-0.699,0.516-1.128,0.684c-0.428,0.168-0.914,0.252-1.458,0.252c-0.64,0-1.18-0.096-1.619-0.287
			s-0.797-0.441-1.067-0.75c-0.272-0.309-0.467-0.656-0.582-1.045c-0.116-0.387-0.174-0.781-0.174-1.182
			c0-0.398,0.033-0.814,0.102-1.248c0.068-0.432,0.176-0.857,0.324-1.277c0.146-0.42,0.338-0.82,0.569-1.199
			c0.231-0.381,0.513-0.715,0.841-1.002c0.327-0.289,0.708-0.518,1.14-0.686C265.499,432.611,265.99,432.527,266.543,432.527z
			 M266.314,434.832c-0.232,0-0.439,0.098-0.624,0.295s-0.34,0.445-0.468,0.746s-0.225,0.627-0.288,0.98
			c-0.064,0.354-0.097,0.686-0.097,0.998c0,0.354,0.065,0.652,0.197,0.898c0.133,0.244,0.338,0.365,0.618,0.365
			c0.225,0,0.427-0.096,0.605-0.281c0.181-0.189,0.335-0.43,0.463-0.723s0.224-0.617,0.287-0.977
			c0.063-0.355,0.097-0.705,0.097-1.041c0-0.354-0.061-0.65-0.181-0.895C266.805,434.955,266.603,434.832,266.314,434.832z"/>
	</g>
	<g>
		<path fill="#E6007E" d="M219.947,336.095l0.396-2.195l3.863-2.713c0.145-0.104,0.292-0.229,0.444-0.378
			c0.151-0.147,0.228-0.298,0.228-0.449c0-0.168-0.048-0.309-0.144-0.42c-0.097-0.112-0.261-0.169-0.492-0.169
			c-0.28,0-0.506,0.093-0.678,0.276c-0.173,0.184-0.294,0.428-0.366,0.732l-2.557-0.372c0.104-0.464,0.271-0.884,0.505-1.261
			c0.23-0.375,0.512-0.695,0.84-0.96c0.327-0.264,0.703-0.468,1.128-0.611c0.424-0.145,0.888-0.216,1.392-0.216
			c0.4,0,0.797,0.048,1.188,0.144s0.744,0.246,1.056,0.449c0.312,0.204,0.564,0.467,0.756,0.791
			c0.192,0.323,0.288,0.708,0.288,1.156c0,0.392-0.062,0.732-0.186,1.023s-0.282,0.549-0.476,0.772
			c-0.19,0.223-0.407,0.423-0.646,0.599c-0.24,0.176-0.478,0.339-0.708,0.491l-1.452,0.97h3.023l-0.407,2.34H219.947
			L219.947,336.095z"/>
		<path fill="#E6007E" d="M230.938,336.095l0.983-5.58l-1.607,0.864l-0.815-2.1l3.181-1.681h2.556l-1.5,8.496H230.938
			L230.938,336.095z"/>
	</g>
	<g>
		<path fill="#E6007E" d="M113.447,304.914l0.396-2.196l3.863-2.712c0.145-0.104,0.292-0.229,0.444-0.378
			c0.151-0.148,0.228-0.298,0.228-0.45c0-0.168-0.048-0.308-0.144-0.42c-0.097-0.112-0.261-0.168-0.492-0.168
			c-0.28,0-0.506,0.092-0.678,0.276c-0.173,0.184-0.294,0.428-0.366,0.732l-2.557-0.372c0.104-0.464,0.271-0.884,0.505-1.26
			c0.23-0.375,0.512-0.696,0.84-0.96c0.327-0.264,0.703-0.468,1.128-0.612c0.424-0.144,0.888-0.216,1.392-0.216
			c0.4,0,0.797,0.048,1.188,0.144c0.392,0.096,0.744,0.246,1.056,0.449c0.312,0.204,0.564,0.467,0.756,0.791
			c0.192,0.323,0.288,0.708,0.288,1.156c0,0.392-0.062,0.733-0.186,1.024c-0.124,0.291-0.282,0.549-0.476,0.772
			c-0.19,0.223-0.407,0.423-0.646,0.599c-0.24,0.176-0.477,0.339-0.708,0.491l-1.452,0.97h3.023l-0.407,2.34H113.447
			L113.447,304.914z"/>
		<path fill="#E6007E" d="M121.787,304.914l0.396-2.196l3.863-2.712c0.145-0.104,0.292-0.229,0.444-0.378
			c0.151-0.148,0.229-0.298,0.229-0.45c0-0.168-0.049-0.308-0.145-0.42c-0.097-0.112-0.261-0.168-0.492-0.168
			c-0.279,0-0.506,0.092-0.678,0.276c-0.173,0.184-0.294,0.428-0.366,0.732l-2.557-0.372c0.104-0.464,0.271-0.884,0.505-1.26
			c0.231-0.375,0.512-0.696,0.84-0.96c0.327-0.264,0.703-0.468,1.128-0.612c0.424-0.144,0.889-0.216,1.393-0.216
			c0.399,0,0.796,0.048,1.188,0.144c0.393,0.096,0.744,0.246,1.056,0.449c0.312,0.204,0.564,0.467,0.757,0.791
			c0.191,0.323,0.288,0.708,0.288,1.156c0,0.392-0.062,0.733-0.187,1.024c-0.124,0.291-0.282,0.549-0.475,0.772
			c-0.191,0.223-0.408,0.423-0.647,0.599c-0.24,0.176-0.477,0.339-0.708,0.491l-1.452,0.97h3.023l-0.407,2.34H121.787
			L121.787,304.914z"/>
	</g>
	<g>
		<path fill="#E6007E" d="M213.299,227.007l0.396-2.196l3.864-2.712c0.144-0.104,0.292-0.229,0.443-0.378
			c0.151-0.148,0.229-0.298,0.229-0.45c0-0.168-0.048-0.308-0.145-0.42s-0.261-0.168-0.491-0.168c-0.28,0-0.507,0.092-0.679,0.276
			c-0.173,0.184-0.294,0.428-0.366,0.732l-2.557-0.372c0.104-0.464,0.272-0.884,0.505-1.26c0.231-0.375,0.513-0.696,0.84-0.96
			c0.327-0.264,0.703-0.468,1.128-0.612s0.889-0.216,1.393-0.216c0.399,0,0.796,0.048,1.188,0.144
			c0.393,0.096,0.744,0.246,1.057,0.449c0.312,0.204,0.563,0.467,0.756,0.791c0.191,0.323,0.288,0.708,0.288,1.156
			c0,0.392-0.062,0.733-0.187,1.024s-0.281,0.549-0.475,0.772c-0.191,0.223-0.408,0.423-0.647,0.599s-0.477,0.339-0.708,0.491
			l-1.451,0.97h3.022l-0.407,2.34H213.299z"/>
		<path fill="#E6007E" d="M229.079,224.283c0,0.52-0.113,0.968-0.342,1.344s-0.521,0.684-0.882,0.924
			c-0.36,0.24-0.76,0.416-1.2,0.528c-0.44,0.112-0.872,0.168-1.296,0.168c-0.448,0-0.874-0.053-1.278-0.157
			c-0.402-0.104-0.766-0.261-1.086-0.47c-0.319-0.209-0.592-0.477-0.814-0.802c-0.226-0.325-0.386-0.713-0.48-1.163l2.544-0.612
			c0.072,0.272,0.208,0.484,0.408,0.636c0.2,0.152,0.452,0.228,0.756,0.228c0.096,0,0.196-0.012,0.3-0.036
			c0.104-0.023,0.198-0.061,0.282-0.113c0.084-0.052,0.154-0.115,0.21-0.19c0.056-0.075,0.084-0.168,0.084-0.279
			c0-0.277-0.106-0.459-0.324-0.547c-0.216-0.087-0.516-0.131-0.898-0.131h-0.792l0.324-1.896h0.91c0.152,0,0.306-0.012,0.456-0.036
			c0.152-0.024,0.284-0.062,0.396-0.114c0.111-0.052,0.204-0.12,0.275-0.204s0.107-0.19,0.107-0.318c0-0.2-0.065-0.338-0.198-0.414
			c-0.132-0.076-0.29-0.114-0.474-0.114c-0.232,0-0.444,0.06-0.636,0.18c-0.192,0.12-0.324,0.28-0.396,0.48l-2.436-0.648
			c0.15-0.392,0.354-0.73,0.61-1.014c0.257-0.284,0.544-0.518,0.864-0.702s0.666-0.32,1.038-0.408
			c0.372-0.088,0.754-0.132,1.146-0.132c0.376,0,0.759,0.036,1.146,0.108c0.388,0.072,0.738,0.2,1.05,0.384
			c0.312,0.184,0.566,0.43,0.763,0.738c0.195,0.308,0.295,0.694,0.295,1.158c0,0.264-0.054,0.502-0.156,0.714
			c-0.104,0.212-0.234,0.396-0.391,0.552c-0.155,0.156-0.327,0.282-0.517,0.378c-0.188,0.096-0.37,0.164-0.546,0.204l-0.012,0.048
			c0.376,0.136,0.668,0.354,0.876,0.654C228.975,223.509,229.079,223.868,229.079,224.283z"/>
	</g>
	<g>
		<path fill="#E6007E" d="M334.327,162.9l0.396-2.196l3.863-2.712c0.145-0.104,0.292-0.229,0.444-0.378
			c0.151-0.148,0.229-0.298,0.229-0.45c0-0.168-0.049-0.308-0.145-0.42c-0.097-0.112-0.261-0.168-0.492-0.168
			c-0.279,0-0.506,0.092-0.678,0.276c-0.173,0.184-0.294,0.428-0.366,0.732l-2.557-0.372c0.104-0.464,0.271-0.884,0.505-1.26
			c0.23-0.375,0.512-0.696,0.84-0.96c0.327-0.264,0.703-0.468,1.128-0.612c0.424-0.144,0.888-0.216,1.393-0.216
			c0.399,0,0.796,0.048,1.188,0.144c0.392,0.096,0.744,0.246,1.056,0.449c0.312,0.204,0.564,0.467,0.757,0.791
			c0.191,0.323,0.287,0.708,0.287,1.156c0,0.392-0.062,0.733-0.186,1.024s-0.282,0.549-0.475,0.772
			c-0.191,0.223-0.408,0.423-0.647,0.599c-0.24,0.176-0.477,0.339-0.708,0.491l-1.452,0.97h3.023l-0.407,2.34H334.327z"/>
		<path fill="#E6007E" d="M349.146,161.388l-0.265,1.512h-2.521l0.265-1.512h-4.021l0.408-2.268l3.863-4.716h3.456l-0.853,4.812
			h1.212l-0.384,2.172H349.146z M347.394,156.96h-0.048l-1.836,2.256h1.487L347.394,156.96z"/>
	</g>
	<g>
		<path fill="#E6007E" d="M298.327,378.777l0.396-2.196l3.863-2.712c0.145-0.104,0.292-0.229,0.444-0.378
			c0.151-0.148,0.228-0.298,0.228-0.45c0-0.168-0.048-0.308-0.144-0.42c-0.097-0.112-0.261-0.168-0.492-0.168
			c-0.28,0-0.506,0.092-0.678,0.275c-0.173,0.185-0.294,0.429-0.366,0.732l-2.557-0.372c0.104-0.464,0.271-0.884,0.505-1.26
			c0.23-0.375,0.512-0.696,0.84-0.96c0.327-0.265,0.703-0.468,1.128-0.612c0.424-0.144,0.888-0.216,1.393-0.216
			c0.399,0,0.796,0.048,1.188,0.144c0.392,0.097,0.744,0.246,1.056,0.449c0.312,0.204,0.564,0.467,0.757,0.791
			c0.191,0.323,0.287,0.708,0.287,1.156c0,0.392-0.062,0.733-0.186,1.023c-0.124,0.291-0.282,0.55-0.475,0.772
			c-0.191,0.223-0.408,0.423-0.647,0.599c-0.24,0.177-0.477,0.339-0.708,0.491l-1.452,0.97h3.023l-0.407,2.341H298.327
			L298.327,378.777z"/>
		<path fill="#E6007E" d="M314.119,375.717c0,0.584-0.114,1.084-0.343,1.5s-0.519,0.758-0.87,1.026
			c-0.352,0.268-0.745,0.464-1.182,0.588s-0.857,0.186-1.267,0.186c-0.464,0-0.896-0.054-1.296-0.16
			c-0.399-0.107-0.761-0.27-1.08-0.484s-0.593-0.479-0.815-0.794c-0.225-0.314-0.389-0.675-0.492-1.081l2.58-0.696
			c0.063,0.265,0.195,0.477,0.396,0.636c0.199,0.16,0.437,0.24,0.708,0.24c0.097,0,0.193-0.012,0.294-0.036
			c0.101-0.023,0.191-0.063,0.275-0.121c0.084-0.056,0.154-0.131,0.21-0.224c0.057-0.093,0.084-0.208,0.084-0.345
			c0-0.314-0.119-0.522-0.359-0.623c-0.239-0.102-0.548-0.151-0.924-0.151c-0.336,0-0.721,0.026-1.151,0.078
			c-0.433,0.052-0.837,0.114-1.213,0.187l1.2-5.16h5.725l-0.408,2.315h-3.372l-0.168,0.685c0.097-0.017,0.206-0.03,0.33-0.042
			c0.124-0.013,0.229-0.019,0.317-0.019c0.345,0,0.687,0.04,1.026,0.12s0.642,0.216,0.905,0.408
			c0.265,0.192,0.479,0.448,0.643,0.768C314.036,374.837,314.119,375.237,314.119,375.717z"/>
	</g>
	<g>
		<path fill="#E6007E" d="M483.316,392.877c0,0.584-0.115,1.084-0.344,1.5c-0.228,0.416-0.519,0.758-0.869,1.025
			c-0.351,0.267-0.746,0.465-1.182,0.588c-0.437,0.125-0.857,0.188-1.267,0.188c-0.465,0-0.896-0.055-1.297-0.162
			c-0.4-0.106-0.76-0.27-1.08-0.483c-0.319-0.214-0.592-0.479-0.815-0.793c-0.224-0.314-0.388-0.676-0.492-1.082l2.58-0.695
			c0.063,0.264,0.196,0.478,0.396,0.637c0.199,0.16,0.437,0.238,0.709,0.238c0.097,0,0.193-0.012,0.293-0.035
			c0.101-0.022,0.191-0.063,0.275-0.121c0.084-0.057,0.154-0.131,0.211-0.225c0.057-0.092,0.084-0.207,0.084-0.344
			c0-0.314-0.119-0.521-0.359-0.623c-0.239-0.103-0.549-0.152-0.924-0.152c-0.336,0-0.721,0.027-1.152,0.078
			c-0.432,0.053-0.836,0.115-1.213,0.188l1.201-5.159h5.723l-0.407,2.313h-3.371l-0.168,0.687c0.096-0.017,0.205-0.031,0.33-0.043
			c0.123-0.013,0.229-0.019,0.317-0.019c0.345,0,0.687,0.039,1.025,0.119s0.643,0.217,0.906,0.408
			c0.264,0.192,0.479,0.449,0.643,0.77C483.232,391.996,483.316,392.396,483.316,392.877z"/>
	</g>
</g>
<path fill="none" stroke="#090807" stroke-miterlimit="10" d="M1102.422,178.671c0-93.932-76.146-170.079-170.078-170.079
	c-93.933,0-170.078,76.148-170.078,170.079c0,93.935,76.146,170.078,170.078,170.078
	C1026.275,348.749,1102.422,272.603,1102.422,178.671L1102.422,178.671z M1044.312,178.671c0,61.838-50.131,111.968-111.969,111.968
	s-111.97-50.13-111.97-111.968c0-61.839,50.132-111.969,111.97-111.969S1044.312,116.833,1044.312,178.671L1044.312,178.671z"/>
<path fill="none" stroke="#090807" stroke-miterlimit="10" d="M1041.953,623.656c78.281,0,141.74-63.457,141.74-141.73
	c0-78.275-63.459-141.734-141.74-141.734c-78.271,0-141.729,63.457-141.729,141.734
	C900.226,560.199,963.683,623.656,1041.953,623.656L1041.953,623.656z"/>
<path fill="none" stroke="#090807" stroke-miterlimit="10" d="M762.265,639.431c0,15.559,12.608,28.17,28.17,28.17
	c1.93,0,3.812-0.195,5.633-0.566c-0.311,1.678-0.496,3.402-0.496,5.17c0,3.443,0.65,6.729,1.779,9.777
	c3.062,12.582,18.68,23.977,42.713,32.771c0,0,0,0,0,0.035c1.938,0.613,3.756,1.51,5.435,2.625v-11.268h9.924v26.043
	c0.346,1.59,0.559,3.23,0.58,4.926c0.016,0,0.016,0,0.016,0s0.01,0,0.01,11.338v55.771c0,0,0,11.338,11.338,11.338h90.146v-69.311
	h0.072h9.771h0.075v69.312h90.065c0,0,11.34,0,11.34-11.34v-55.77c0,0,0-11.338,0.013-11.338c0,0,0.01,0,0.097-5.287
	c0.014-0.77,0.181-1.621,0.459-2.514v-23.168h9.921v11.238c1.688-1.076,3.521-1.98,5.473-2.602c0,0,0,0,0-0.004
	c0,0,0-0.006,10.649-3.896c13.422-4.904,29.068-16.312,32.134-28.902c1.131-3.051,1.779-6.336,1.779-9.779
	c0-1.768-0.188-3.492-0.34-4.33c0,0-0.155-0.84,0.755-0.65c0.91,0.186,2.793,0.381,4.723,0.381c15.561,0,28.17-12.611,28.17-28.17
	c0-15.562-12.609-28.17-28.17-28.17c-13.65,0-25.032,9.713-26.323,16.156c0,0-1.292,6.445,9.708,6.445c13.489,0,13.489,0,13.489,0
	s1,0,1,1v4.67c0,0,0,5.67-11.339,5.67c-2.489,0-7.389,0-16.506,0c0,0-11.339,0-16.05,1.395s-12.073,8.973-13.312,13.746
	c0,0-1.24,4.771,10.103,4.771c17.938,0,17.938,0,17.938,0s1,0,1,1v4.668c0,0,0,5.67-11.339,5.67h-19.488H972.951v-0.004H949.99
	v0.004h-98.434H821.73c0,0-1,0-1-1v-4.67c0,0,0-5.668,11.338-5.668c1.693,0,4.135,0,7.599,0c0,0,11.344,0,10.104-4.771
	c-1.238-4.773-8.604-12.354-13.312-13.746c0,0-4.711-1.395-16.049-1.395c-23.844,0-23.844,0-23.844,0s-4,0-4-4v-7.34
	c0,0,0,0,25.488,0c-2.582-12.893-13.961-22.604-27.615-22.604C774.878,611.261,762.265,623.873,762.265,639.431L762.265,639.431z"/>
</svg>
